<svg xmlns="http://www.w3.org/2000/svg" id="Capa_1" data-name="Capa 1" viewBox="0 0 1040.82 864.76"><defs><style>.cls-1{fill:#ff214f;}</style></defs><title>manual_v2</title><path class="cls-1" d="M515.7,750.28c-39.28,0-83.59-5.4-128.19-21.61a25.09,25.09,0,1,1,17.15-47.16c113.44,41.25,229.71.39,230.87,0a25.09,25.09,0,0,1,17.1,47.17C649.05,730,591.84,750.28,515.7,750.28Z"/><path class="cls-1" d="M401.94,418.35c-45.76,2.76-112.82-10-140.82-74.21a18.82,18.82,0,0,1,34.49-15.05c29.58,67.79,121.17,49.6,122.06,49.41a18.81,18.81,0,1,1,7.66,36.84A164.74,164.74,0,0,1,401.94,418.35Z"/><path class="cls-1" d="M612.92,452.64c-.39.29-.8.57-1.21.83-32.82,20.5-69.31,24.47-70.85,24.63A18.81,18.81,0,1,1,537,440.68c.25,0,29.58-3.38,54.79-19.12a18.81,18.81,0,0,1,21.15,31.08Z"/><path class="cls-1" d="M899.23,423.23A156.88,156.88,0,0,0,903,389c-.15-56.16-22.72-92.94-69-112.45-1.4-.59-2.06-1-1.76-4,2.35-24-4.35-46-18.85-61.93-15.3-16.84-38.32-26.07-64.81-26H747c-1.8,0-4.27,0-6.84,0a157.89,157.89,0,0,0-128.25-65.4A156.29,156.29,0,0,0,544,134.78c-2,1-4.9.58-7.3-1a118.33,118.33,0,0,0-141.17,8.69c-46.11-6.91-92.36,15.15-116.95,53.58a70.08,70.08,0,0,0-24.72.09,68.94,68.94,0,0,0-55.54,78.16,109.69,109.69,0,0,0-38.79,149.45,83.6,83.6,0,0,0,38.92,143.33c27.67,5.76,367.13,12.26,531.2,11.83,45-.12,76.86-.77,85.4-2.09,46-7.14,83.65-44.1,91.59-89.89A111.54,111.54,0,0,0,899.23,423.23Zm-42.42,57.28c-4.31,24.9-24.39,42.83-49.39,46.71-39.63,5.42-565.7-2.72-598.75-9.27-13-2.71-23.53-13.91-25.6-27.24-1.62-10.44,1-23.21,12.61-32,5.11-3.84,14.78-6.95,21.17-6.66,9.43.43,14.83,4.37,15.44,4.84a18.81,18.81,0,0,0,24.82-28.28c-6.87-6-20.93-13.46-39.43-14.16a9.6,9.6,0,0,1-8.11-5.57,34.15,34.15,0,0,0-2.42-4.12c-4.28-6.14-8.13-12.68-10.09-19.9a59.64,59.64,0,0,1,33.91-71,33.81,33.81,0,0,0,18-43.41,18.7,18.7,0,0,1,13.9-25,21,21,0,0,1,3.66-.34,18.41,18.41,0,0,1,7.2,1.41,33.38,33.38,0,0,0,43.1-16.19c13.05-27.34,37.92-42.26,72.66-38.09,19.24,2.3,12.7,30.09,7.28,41.23-5.37,10.77-4.4,22.22,4.77,27.12,6.84,3.65,15.69,3.26,21.25-2.29,10.65-10.66,15.69-34.33,9.61-67.12l-.06-.19c-2-6.86.69-14.51,7-17.88,21.68-11.55,49.26-10.92,69.92,2.61,17.07,11.17,38.74,12.78,56.5,4.23a107.58,107.58,0,0,1,135,35.85,26.44,26.44,0,0,1,3.07,6.27,32.29,32.29,0,0,1-.43,21.64c-4.49,12.3-15.54,34.11-41.5,53.23a9.58,9.58,0,0,1-10.5.45c-1.87-1.1-3.8-2.26-5-3.06-14.16-9.18-16.85-17.17-17-17.38a19.29,19.29,0,1,0-32.51,20.78c.62,1,2.3,7.82,16.11,19.39l-.19,1c-20.77,4.12-45.85,4.32-76.22-1.78a19.24,19.24,0,0,0-23,16.78c-1.14,10.11,6.55,19.31,16.54,21.28q42.84,8.44,79,3.73c26.06-3.41,49.38-11.95,69.77-25.61,43.9-29.41,60.43-73.82,65.51-91.55a7.21,7.21,0,0,1,8.32-5.09c7.73,1.45,19.82,4.33,23.59,8.48,5,5.47,7,13.3,6,23.31-2.35,24.22,10.3,45.85,32.21,55.09,22.93,9.66,38.2,24.63,38.32,66.34a218.74,218.74,0,0,1-1.32,24.33,17,17,0,0,1-20.88,15c-22.09-5-65-5.58-72.25-49.51-1.43-8.72-7.88-16.33-16.67-17.2a18.85,18.85,0,0,0-20.74,21.5c9.54,63.78,70.62,77.41,104.68,82.6a253.44,253.44,0,0,0,25.5,2.19,6.64,6.64,0,0,1,6.42,7.42C857.31,477.35,857.05,479.12,856.81,480.51Z"/></svg>